<svg width="117" height="48" viewBox="0 0 117 48" fill="none" xmlns="http://www.w3.org/2000/svg">
<rect x="0.212158" width="116.576" height="48" rx="24" fill="#EAF8FA"/>
<path d="M74.0858 35.3761V33.8286H84.1354L83.0354 34.6489V30.7894C83.0354 29.9691 82.9421 29.3289 82.7557 28.869C82.5817 28.4091 82.2709 28.0797 81.8234 27.8808C81.376 27.6819 80.7669 27.5825 79.9962 27.5825C79.4742 27.5825 78.9583 27.6198 78.4487 27.6944C77.9391 27.769 77.5413 27.8684 77.2554 27.9927L78.3182 26.9486C78.2436 27.2345 78.169 27.6011 78.0944 28.0486C78.0199 28.4961 77.9577 28.9809 77.908 29.5029C77.8583 30.0126 77.8334 30.5222 77.8334 31.0318C77.8334 31.5414 77.8583 32.0449 77.908 32.5421C77.9577 33.0393 78.0137 33.4743 78.0758 33.8472C78.138 34.2201 78.1877 34.4749 78.225 34.6116L76.5656 35.0778C76.5158 34.9162 76.4537 34.6365 76.3791 34.2387C76.317 33.841 76.2548 33.3624 76.1927 32.8031C76.1429 32.2437 76.1181 31.6533 76.1181 31.0318C76.1181 30.4227 76.1429 29.8323 76.1927 29.2605C76.2548 28.6763 76.3232 28.1481 76.3978 27.6757C76.4848 27.2034 76.5656 26.8243 76.6401 26.5384C76.926 26.4265 77.3673 26.3146 77.9639 26.2028C78.573 26.0909 79.2504 26.035 79.9962 26.035C81.0528 26.035 81.9353 26.1903 82.6438 26.5011C83.3648 26.8118 83.8992 27.3153 84.2473 28.0113C84.6077 28.695 84.788 29.621 84.788 30.7894V35.3761H74.0858ZM74.0858 35.3761C74.0112 35.3761 73.9491 35.3574 73.8993 35.3201C73.8496 35.2829 73.8123 35.2331 73.7875 35.171C73.7626 35.0964 73.744 35.0094 73.7315 34.91C73.7191 34.8105 73.7129 34.7049 73.7129 34.593C73.7129 34.4314 73.7253 34.2947 73.7502 34.1828C73.7626 34.0709 73.7999 33.9839 73.862 33.9218C73.9118 33.8596 73.9863 33.8286 74.0858 33.8286V35.3761Z" fill="#0A2429"/>
<path d="M72.091 35.3761V33.8285H74.086V35.3761H72.091ZM66.9636 40C65.9568 40 65.0432 39.8136 64.2228 39.4407C63.4149 39.0802 62.7748 38.5644 62.3024 37.8931C61.8425 37.2343 61.6125 36.4823 61.6125 35.6371C61.6125 35.3761 61.6312 35.0342 61.6685 34.6116C61.7182 34.189 61.7741 33.7167 61.8363 33.1946C61.9109 32.6726 61.9854 32.1443 62.06 31.6098C62.147 31.0753 62.2278 30.5595 62.3024 30.0623L64.0364 30.3233C63.8997 31.181 63.7754 31.9703 63.6635 32.6912C63.5641 33.3997 63.4833 34.0088 63.4211 34.5184C63.3714 35.0156 63.3465 35.3885 63.3465 35.6371C63.3465 36.184 63.4957 36.6688 63.794 37.0914C64.0923 37.514 64.5149 37.8434 65.0619 38.0796C65.6088 38.3282 66.2427 38.4525 66.9636 38.4525C67.6846 38.4525 68.2937 38.3344 68.7908 38.0982C69.3005 37.8745 69.6858 37.5637 69.9468 37.166C70.2079 36.7682 70.3384 36.2959 70.3384 35.749V26.035H72.091V35.749C72.091 36.6315 71.861 37.3897 71.4011 38.0236C70.9412 38.6576 70.3259 39.1423 69.5553 39.478C68.7846 39.826 67.9208 40 66.9636 40ZM74.086 35.3761V33.8285C74.1606 33.8285 74.2227 33.8472 74.2725 33.8845C74.3222 33.9218 74.3595 33.9715 74.3843 34.0336C74.4092 34.0958 74.4278 34.1766 74.4403 34.276C74.4527 34.363 74.4589 34.4687 74.4589 34.593C74.4589 34.7049 74.4527 34.8105 74.4403 34.9099C74.4278 35.0094 74.4092 35.0964 74.3843 35.171C74.3595 35.2331 74.3222 35.2828 74.2725 35.3201C74.2227 35.3574 74.1606 35.3761 74.086 35.3761ZM65.9941 25.8672V24.0586H67.7467V25.8672H65.9941Z" fill="#0A2429"/>
<path d="M41.9124 35.3761V33.8286H54.8334L53.696 34.7794V31.6098C53.696 30.4663 53.522 29.534 53.174 28.8131C52.8384 28.0921 52.3225 27.5639 51.6265 27.2282C50.9428 26.8802 50.0727 26.7062 49.0162 26.7062C48.5563 26.7062 48.0653 26.731 47.5432 26.7808C47.0212 26.8181 46.5053 26.874 45.9957 26.9486C45.4861 27.0107 45.0199 27.0729 44.5973 27.135L44.3736 25.8858C44.6968 25.7988 45.1132 25.6994 45.6228 25.5875C46.1448 25.4632 46.7104 25.3575 47.3195 25.2705C47.941 25.1835 48.5438 25.14 49.128 25.14C49.9236 25.14 50.6942 25.2457 51.44 25.457C52.1982 25.6683 52.8695 26.0225 53.4537 26.5197C54.0503 27.0045 54.5226 27.6633 54.8707 28.4961C55.2311 29.3289 55.4114 30.3668 55.4114 31.6098V35.3761H41.9124ZM44.0566 33.8286V32.4861C44.0566 31.8895 44.2058 31.3363 44.5041 30.8267C44.8024 30.3171 45.2126 29.9069 45.7347 29.5962C46.2691 29.2854 46.8596 29.13 47.5059 29.13C48.1647 29.13 48.7489 29.2854 49.2586 29.5962C49.7806 29.9069 50.1908 30.3171 50.4891 30.8267C50.7874 31.3363 50.9366 31.8895 50.9366 32.4861V33.8286H49.3331V32.4861C49.3331 32.1132 49.2461 31.7838 49.0721 31.4979C48.9105 31.212 48.693 30.9883 48.4195 30.8267C48.1585 30.6527 47.854 30.5657 47.5059 30.5657C47.1703 30.5657 46.8596 30.6527 46.5737 30.8267C46.3002 30.9883 46.0765 31.2183 45.9025 31.5166C45.7284 31.8025 45.6414 32.1257 45.6414 32.4861V33.8286H44.0566ZM41.9124 35.3761C41.8379 35.3761 41.7757 35.3574 41.726 35.3201C41.6763 35.2829 41.639 35.2331 41.6141 35.171C41.5893 35.0964 41.5706 35.0094 41.5582 34.91C41.5458 34.8105 41.5396 34.7049 41.5396 34.593C41.5396 34.4314 41.552 34.2947 41.5768 34.1828C41.5893 34.0709 41.6266 33.9839 41.6887 33.9218C41.7384 33.8596 41.813 33.8286 41.9124 33.8286V35.3761Z" fill="#0A2429"/>
<path d="M39.924 35.3761V33.8286H41.919V35.3761H39.924ZM36.1764 35.3761C36.1018 35.3761 36.0396 35.3574 35.9899 35.3201C35.9402 35.2829 35.9029 35.2331 35.878 35.171C35.8532 35.0964 35.8345 35.0094 35.8221 34.91C35.8097 34.8105 35.8035 34.7049 35.8035 34.593C35.8035 34.4314 35.8159 34.2947 35.8408 34.1828C35.8532 34.0709 35.8905 33.9839 35.9526 33.9218C36.0023 33.8596 36.0769 33.8286 36.1764 33.8286V35.3761ZM36.1764 35.3761V33.8286H39.0663L38.1714 34.5371V26.035H39.924V35.3761H36.1764ZM41.919 35.3761V33.8286C41.9936 33.8286 42.0557 33.8472 42.1055 33.8845C42.1552 33.9218 42.1925 33.9715 42.2173 34.0336C42.2422 34.0958 42.2608 34.1766 42.2733 34.276C42.2857 34.363 42.2919 34.4687 42.2919 34.593C42.2919 34.7049 42.2857 34.8105 42.2733 34.91C42.2608 35.0094 42.2422 35.0964 42.2173 35.171C42.1925 35.2331 42.1552 35.2829 42.1055 35.3201C42.0557 35.3574 41.9936 35.3761 41.919 35.3761Z" fill="#0A2429"/>
<path d="M33.9461 35.3761V33.8286H36.1835V35.3761H33.9461ZM32.2122 35.3761V22.0636H33.9461V35.3761H32.2122ZM36.1835 35.3761V33.8286C36.2457 33.8286 36.3016 33.8472 36.3513 33.8845C36.4011 33.9218 36.4383 33.9715 36.4632 34.0336C36.4881 34.0958 36.5067 34.1766 36.5191 34.276C36.544 34.363 36.5564 34.4687 36.5564 34.593C36.5564 34.7049 36.544 34.8105 36.5191 34.91C36.5067 35.0094 36.4881 35.0964 36.4632 35.171C36.4383 35.2331 36.4011 35.2829 36.3513 35.3201C36.3016 35.3574 36.2457 35.3761 36.1835 35.3761Z" fill="#0A2429"/>
<path d="M76.7655 21.6573V20.8995H84.2771L83.9806 21.1631V16.5342C83.9806 15.7545 83.7335 15.1725 83.2393 14.7881C82.7451 14.3928 81.9928 14.1951 80.9825 14.1951C80.6531 14.1951 80.2357 14.2226 79.7306 14.2775C79.2254 14.3214 78.6159 14.3928 77.9021 14.4916L77.8033 13.8327C78.2425 13.7339 78.7422 13.6405 79.3023 13.5527C79.8624 13.4648 80.4115 13.4209 80.9496 13.4209C81.7622 13.4209 82.4541 13.5417 83.0251 13.7833C83.5962 14.0139 84.03 14.3598 84.3265 14.8211C84.634 15.2823 84.7877 15.8534 84.7877 16.5342V21.6573H76.7655ZM76.7655 21.6573C76.6886 21.6573 76.6282 21.6518 76.5843 21.6408C76.5404 21.6188 76.5074 21.5914 76.4855 21.5584C76.4635 21.5255 76.4525 21.487 76.4525 21.4431C76.4415 21.3882 76.436 21.3333 76.436 21.2784C76.436 21.2015 76.447 21.1411 76.469 21.0972C76.48 21.0423 76.5074 20.9983 76.5513 20.9654C76.5953 20.9215 76.6667 20.8995 76.7655 20.8995V21.6573ZM80.5377 12.2348V11.1476H81.3449V12.2348H80.5377Z" fill="#0A2429"/>
<path d="M75.0642 21.6573V20.8996H76.7609V21.6573H75.0642ZM68.6892 21.6573V20.8996H74.883L74.257 21.4761V17.8357C74.257 16.9461 74.1472 16.2378 73.9275 15.7107C73.7079 15.1726 73.3455 14.7827 72.8403 14.5411C72.3462 14.2995 71.6927 14.1787 70.8801 14.1787H69.5458V13.421H70.8801C71.7586 13.421 72.5109 13.5582 73.1369 13.8328C73.7628 14.1073 74.2405 14.5686 74.57 15.2165C74.8994 15.8534 75.0642 16.7265 75.0642 17.8357V21.6573H68.6892ZM76.7609 21.6573V20.8996C76.8267 20.8996 76.8817 20.9106 76.9256 20.9325C76.9695 20.9545 77.0025 20.982 77.0244 21.0149C77.0464 21.0478 77.0629 21.0863 77.0738 21.1302C77.0848 21.1741 77.0903 21.2236 77.0903 21.2785C77.0903 21.3334 77.0848 21.3883 77.0738 21.4432C77.0629 21.4871 77.0464 21.5256 77.0244 21.5585C77.0025 21.5914 76.9695 21.6189 76.9256 21.6409C76.8817 21.6518 76.8267 21.6573 76.7609 21.6573Z" fill="#0A2429"/>
<path d="M57.7511 21.6573V20.8996H66.5311L65.938 21.3938V17.6215C65.938 16.7759 65.8337 16.106 65.6251 15.6118C65.4164 15.1067 65.076 14.7443 64.6037 14.5246C64.1425 14.294 63.522 14.1787 62.7423 14.1787C62.2811 14.1787 61.8144 14.2117 61.3421 14.2775C60.8699 14.3434 60.5075 14.4368 60.2549 14.5576L60.7327 14.0469C60.6777 14.2995 60.6119 14.629 60.535 15.0353C60.4691 15.4416 60.4142 15.8919 60.3703 16.3861C60.3263 16.8802 60.3044 17.3799 60.3044 17.8851C60.3044 18.4342 60.3263 18.9558 60.3703 19.45C60.4252 19.9332 60.4801 20.345 60.535 20.6854C60.5899 21.0149 60.6338 21.2345 60.6668 21.3444L59.909 21.5914C59.8761 21.4597 59.8267 21.2181 59.7608 20.8666C59.6949 20.5042 59.6345 20.065 59.5796 19.5488C59.5356 19.0217 59.5137 18.4671 59.5137 17.8851C59.5137 17.336 59.5356 16.8034 59.5796 16.2872C59.6345 15.7711 59.6949 15.3043 59.7608 14.887C59.8376 14.4587 59.9035 14.1183 59.9584 13.8657C60.1891 13.7669 60.5569 13.668 61.0621 13.5692C61.5673 13.4704 62.1273 13.421 62.7423 13.421C63.6319 13.421 64.3731 13.5582 64.9661 13.8328C65.5592 14.1073 66.0039 14.5521 66.3004 15.1671C66.597 15.7711 66.7452 16.5892 66.7452 17.6215V21.6573H57.7511ZM57.7511 21.6573C57.6742 21.6573 57.6138 21.6518 57.5699 21.6409C57.526 21.6189 57.493 21.5914 57.471 21.5585C57.4491 21.5256 57.4381 21.4871 57.4381 21.4432C57.4271 21.3883 57.4216 21.3334 57.4216 21.2785C57.4216 21.2016 57.4326 21.1412 57.4546 21.0973C57.4656 21.0424 57.493 20.9984 57.5369 20.9655C57.5809 20.9216 57.6522 20.8996 57.7511 20.8996V21.6573Z" fill="#0A2429"/>
<path d="M52.5601 21.6573C51.6047 21.6573 50.858 21.5145 50.3198 21.229C49.7927 20.9325 49.4193 20.4822 49.1997 19.8782C48.991 19.2632 48.8867 18.4835 48.8867 17.5391C48.8867 16.5947 48.991 15.8204 49.1997 15.2164C49.4193 14.6015 49.7927 14.1512 50.3198 13.8657C50.858 13.5692 51.6047 13.4209 52.5601 13.4209H55.6735V21.229H54.8663V13.8327L55.2452 14.1787H52.5601C51.8134 14.1787 51.2313 14.2775 50.814 14.4752C50.3967 14.6619 50.1057 15.0023 49.941 15.4965C49.7762 15.9797 49.6939 16.6605 49.6939 17.5391C49.6939 18.4176 49.7762 19.104 49.941 19.5982C50.1057 20.0814 50.3967 20.4218 50.814 20.6195C51.2313 20.8062 51.8134 20.8995 52.5601 20.8995H57.3537V21.6573H52.5601ZM57.3537 21.6573V20.8995C57.4306 20.8995 57.491 20.9105 57.5349 20.9325C57.5788 20.9544 57.6118 20.9819 57.6337 21.0148C57.6557 21.0478 57.6667 21.0862 57.6667 21.1302C57.6777 21.1741 57.6832 21.2235 57.6832 21.2784C57.6832 21.3333 57.6777 21.3882 57.6667 21.4431C57.6667 21.4871 57.6557 21.5255 57.6337 21.5584C57.6118 21.5914 57.5788 21.6188 57.5349 21.6408C57.491 21.6518 57.4306 21.6573 57.3537 21.6573ZM50.9623 11.543V10.4558H51.7694V11.543H50.9623ZM53.2191 11.543V10.4558H54.0262V11.543H53.2191Z" fill="#0A2429"/>
<path fill-rule="evenodd" clip-rule="evenodd" d="M38.9225 9.61131C36.2741 9.61131 34.0886 11.8261 34.0886 14.6064C34.0886 15.9598 34.6815 17.2405 35.6902 18.5877C36.5431 19.7269 37.6347 20.8406 38.8117 22.0415C38.8486 22.0791 38.8855 22.1168 38.9225 22.1545C38.9595 22.1168 38.9965 22.0791 39.0333 22.0415C40.2103 20.8406 41.3019 19.7269 42.1548 18.5877C43.1635 17.2405 43.7564 15.9598 43.7564 14.6064C43.7564 11.8261 41.571 9.61131 38.9225 9.61131ZM32.4773 14.6064C32.4773 10.9793 35.3417 8 38.9225 8C42.5034 8 45.3678 10.9793 45.3678 14.6064C45.3678 16.4565 44.5508 18.0762 43.4446 19.5535C42.5214 20.7865 41.3396 21.9915 40.1641 23.1901C39.9419 23.4166 39.7201 23.6429 39.5002 23.869C39.3485 24.025 39.1401 24.1131 38.9225 24.1131C38.7049 24.1131 38.4966 24.025 38.3449 23.869C38.125 23.6429 37.9031 23.4166 37.681 23.1901C36.5054 21.9915 35.3236 20.7865 34.4004 19.5535C33.2943 18.0762 32.4773 16.4565 32.4773 14.6064ZM41.9092 13.0699C42.2238 13.3845 42.2238 13.8946 41.9092 14.2093L38.6866 17.4319C38.3719 17.7465 37.8618 17.7465 37.5472 17.4319L35.9359 15.8206C35.6213 15.5059 35.6213 14.9958 35.9359 14.6812C36.2505 14.3666 36.7606 14.3666 37.0752 14.6812L38.1169 15.7228L40.7698 13.0699C41.0844 12.7553 41.5945 12.7553 41.9092 13.0699Z" fill="#30B0C7"/>
</svg>
