<svg width="53" height="32" viewBox="0 0 53 32" fill="none" xmlns="http://www.w3.org/2000/svg">
<path d="M42.0858 27.3761V25.8286H52.1354L51.0354 26.6489V22.7894C51.0354 21.9691 50.9421 21.3289 50.7557 20.869C50.5817 20.4091 50.2709 20.0797 49.8234 19.8808C49.376 19.6819 48.7669 19.5825 47.9962 19.5825C47.4742 19.5825 46.9583 19.6198 46.4487 19.6944C45.9391 19.769 45.5413 19.8684 45.2554 19.9927L46.3182 18.9486C46.2436 19.2345 46.169 19.6011 46.0944 20.0486C46.0199 20.4961 45.9577 20.9809 45.908 21.5029C45.8583 22.0126 45.8334 22.5222 45.8334 23.0318C45.8334 23.5414 45.8583 24.0449 45.908 24.5421C45.9577 25.0393 46.0137 25.4743 46.0758 25.8472C46.138 26.2201 46.1877 26.4749 46.225 26.6116L44.5656 27.0778C44.5158 26.9162 44.4537 26.6365 44.3791 26.2387C44.317 25.841 44.2548 25.3624 44.1927 24.8031C44.1429 24.2437 44.1181 23.6533 44.1181 23.0318C44.1181 22.4227 44.1429 21.8323 44.1927 21.2605C44.2548 20.6763 44.3232 20.1481 44.3978 19.6757C44.4848 19.2034 44.5656 18.8243 44.6401 18.5384C44.926 18.4265 45.3673 18.3146 45.9639 18.2028C46.573 18.0909 47.2504 18.035 47.9962 18.035C49.0528 18.035 49.9353 18.1903 50.6438 18.5011C51.3648 18.8118 51.8992 19.3153 52.2473 20.0113C52.6077 20.695 52.788 21.621 52.788 22.7894V27.3761H42.0858ZM42.0858 27.3761C42.0112 27.3761 41.9491 27.3574 41.8993 27.3201C41.8496 27.2829 41.8123 27.2331 41.7875 27.171C41.7626 27.0964 41.744 27.0094 41.7315 26.91C41.7191 26.8105 41.7129 26.7049 41.7129 26.593C41.7129 26.4314 41.7253 26.2947 41.7502 26.1828C41.7626 26.0709 41.7999 25.9839 41.862 25.9218C41.9118 25.8596 41.9863 25.8286 42.0858 25.8286V27.3761Z" fill="#0A2429"/>
<path d="M40.091 27.3761V25.8285H42.086V27.3761H40.091ZM34.9636 32C33.9568 32 33.0432 31.8136 32.2228 31.4407C31.4149 31.0802 30.7748 30.5644 30.3024 29.8931C29.8425 29.2343 29.6125 28.4823 29.6125 27.6371C29.6125 27.3761 29.6312 27.0342 29.6685 26.6116C29.7182 26.189 29.7741 25.7167 29.8363 25.1946C29.9109 24.6726 29.9854 24.1443 30.06 23.6098C30.147 23.0753 30.2278 22.5595 30.3024 22.0623L32.0364 22.3233C31.8997 23.181 31.7754 23.9703 31.6635 24.6912C31.5641 25.3997 31.4833 26.0088 31.4211 26.5184C31.3714 27.0156 31.3465 27.3885 31.3465 27.6371C31.3465 28.184 31.4957 28.6688 31.794 29.0914C32.0923 29.514 32.5149 29.8434 33.0619 30.0796C33.6088 30.3282 34.2427 30.4525 34.9636 30.4525C35.6846 30.4525 36.2937 30.3344 36.7908 30.0982C37.3005 29.8745 37.6858 29.5637 37.9468 29.166C38.2079 28.7682 38.3384 28.2959 38.3384 27.749V18.035H40.091V27.749C40.091 28.6315 39.861 29.3897 39.4011 30.0236C38.9412 30.6576 38.3259 31.1423 37.5553 31.478C36.7846 31.826 35.9208 32 34.9636 32ZM42.086 27.3761V25.8285C42.1606 25.8285 42.2227 25.8472 42.2725 25.8845C42.3222 25.9218 42.3595 25.9715 42.3843 26.0336C42.4092 26.0958 42.4278 26.1766 42.4403 26.276C42.4527 26.363 42.4589 26.4687 42.4589 26.593C42.4589 26.7049 42.4527 26.8105 42.4403 26.9099C42.4278 27.0094 42.4092 27.0964 42.3843 27.171C42.3595 27.2331 42.3222 27.2828 42.2725 27.3201C42.2227 27.3574 42.1606 27.3761 42.086 27.3761ZM33.9941 17.8672V16.0586H35.7467V17.8672H33.9941Z" fill="#0A2429"/>
<path d="M9.91245 27.3761V25.8286H22.8334L21.696 26.7794V23.6098C21.696 22.4663 21.522 21.534 21.174 20.8131C20.8384 20.0921 20.3225 19.5639 19.6265 19.2282C18.9428 18.8802 18.0727 18.7062 17.0162 18.7062C16.5563 18.7062 16.0653 18.731 15.5432 18.7808C15.0212 18.8181 14.5053 18.874 13.9957 18.9486C13.4861 19.0107 13.0199 19.0729 12.5973 19.135L12.3736 17.8858C12.6968 17.7988 13.1132 17.6994 13.6228 17.5875C14.1448 17.4632 14.7104 17.3575 15.3195 17.2705C15.941 17.1835 16.5438 17.14 17.128 17.14C17.9236 17.14 18.6942 17.2457 19.44 17.457C20.1982 17.6683 20.8695 18.0225 21.4537 18.5197C22.0503 19.0045 22.5226 19.6633 22.8707 20.4961C23.2311 21.3289 23.4114 22.3668 23.4114 23.6098V27.3761H9.91245ZM12.0566 25.8286V24.4861C12.0566 23.8895 12.2058 23.3363 12.5041 22.8267C12.8024 22.3171 13.2126 21.9069 13.7347 21.5962C14.2691 21.2854 14.8596 21.13 15.5059 21.13C16.1647 21.13 16.7489 21.2854 17.2586 21.5962C17.7806 21.9069 18.1908 22.3171 18.4891 22.8267C18.7874 23.3363 18.9366 23.8895 18.9366 24.4861V25.8286H17.3331V24.4861C17.3331 24.1132 17.2461 23.7838 17.0721 23.4979C16.9105 23.212 16.693 22.9883 16.4195 22.8267C16.1585 22.6527 15.854 22.5657 15.5059 22.5657C15.1703 22.5657 14.8596 22.6527 14.5737 22.8267C14.3002 22.9883 14.0765 23.2183 13.9025 23.5166C13.7284 23.8025 13.6414 24.1257 13.6414 24.4861V25.8286H12.0566ZM9.91245 27.3761C9.83787 27.3761 9.77572 27.3574 9.726 27.3201C9.67628 27.2829 9.63899 27.2331 9.61413 27.171C9.58927 27.0964 9.57063 27.0094 9.5582 26.91C9.54577 26.8105 9.53955 26.7049 9.53955 26.593C9.53955 26.4314 9.55198 26.2947 9.57684 26.1828C9.58927 26.0709 9.62656 25.9839 9.68871 25.9218C9.73843 25.8596 9.81301 25.8286 9.91245 25.8286V27.3761Z" fill="#0A2429"/>
<path d="M7.924 27.3761V25.8286H9.91901V27.3761H7.924ZM4.17637 27.3761C4.10179 27.3761 4.03964 27.3574 3.98992 27.3201C3.9402 27.2829 3.90291 27.2331 3.87805 27.171C3.85319 27.0964 3.83454 27.0094 3.82211 26.91C3.80968 26.8105 3.80347 26.7049 3.80347 26.593C3.80347 26.4314 3.8159 26.2947 3.84076 26.1828C3.85319 26.0709 3.89048 25.9839 3.95263 25.9218C4.00235 25.8596 4.07693 25.8286 4.17637 25.8286V27.3761ZM4.17637 27.3761V25.8286H7.06633L6.17137 26.5371V18.035H7.924V27.3761H4.17637ZM9.91901 27.3761V25.8286C9.99359 25.8286 10.0557 25.8472 10.1055 25.8845C10.1552 25.9218 10.1925 25.9715 10.2173 26.0336C10.2422 26.0958 10.2608 26.1766 10.2733 26.276C10.2857 26.363 10.2919 26.4687 10.2919 26.593C10.2919 26.7049 10.2857 26.8105 10.2733 26.91C10.2608 27.0094 10.2422 27.0964 10.2173 27.171C10.1925 27.2331 10.1552 27.2829 10.1055 27.3201C10.0557 27.3574 9.99359 27.3761 9.91901 27.3761Z" fill="#0A2429"/>
<path d="M1.94614 27.3761V25.8286H4.18353V27.3761H1.94614ZM0.212158 27.3761V14.0636H1.94614V27.3761H0.212158ZM4.18353 27.3761V25.8286C4.24568 25.8286 4.30161 25.8472 4.35133 25.8845C4.40105 25.9218 4.43834 25.9715 4.4632 26.0336C4.48806 26.0958 4.50671 26.1766 4.51914 26.276C4.544 26.363 4.55643 26.4687 4.55643 26.593C4.55643 26.7049 4.544 26.8105 4.51914 26.91C4.50671 27.0094 4.48806 27.0964 4.4632 27.171C4.43834 27.2331 4.40105 27.2829 4.35133 27.3201C4.30161 27.3574 4.24568 27.3761 4.18353 27.3761Z" fill="#0A2429"/>
<path d="M44.7655 13.6573V12.8995H52.2771L51.9806 13.1631V8.53423C51.9806 7.75452 51.7335 7.17248 51.2393 6.78812C50.7451 6.39277 49.9928 6.1951 48.9825 6.1951C48.6531 6.1951 48.2357 6.22256 47.7306 6.27747C47.2254 6.32139 46.6159 6.39277 45.9021 6.49161L45.8033 5.8327C46.2425 5.73387 46.7422 5.64052 47.3023 5.55267C47.8624 5.46481 48.4115 5.42088 48.9496 5.42088C49.7622 5.42088 50.4541 5.54168 51.0251 5.78328C51.5962 6.0139 52.03 6.35983 52.3265 6.82107C52.634 7.2823 52.7877 7.85336 52.7877 8.53423V13.6573H44.7655ZM44.7655 13.6573C44.6886 13.6573 44.6282 13.6518 44.5843 13.6408C44.5404 13.6188 44.5074 13.5914 44.4855 13.5584C44.4635 13.5255 44.4525 13.487 44.4525 13.4431C44.4415 13.3882 44.436 13.3333 44.436 13.2784C44.436 13.2015 44.447 13.1411 44.469 13.0972C44.48 13.0423 44.5074 12.9983 44.5513 12.9654C44.5953 12.9215 44.6667 12.8995 44.7655 12.8995V13.6573ZM48.5377 4.23485V3.14764H49.3449V4.23485H48.5377Z" fill="#0A2429"/>
<path d="M43.0642 13.6573V12.8996H44.7609V13.6573H43.0642ZM36.6892 13.6573V12.8996H42.883L42.257 13.4761V9.83566C42.257 8.94613 42.1472 8.2378 41.9275 7.71067C41.7079 7.17256 41.3455 6.78271 40.8403 6.54111C40.3462 6.29951 39.6927 6.17871 38.8801 6.17871H37.5458V5.42096H38.8801C39.7586 5.42096 40.5109 5.55823 41.1369 5.83278C41.7628 6.10732 42.2405 6.56856 42.57 7.21649C42.8994 7.85344 43.0642 8.72649 43.0642 9.83566V13.6573H36.6892ZM44.7609 13.6573V12.8996C44.8267 12.8996 44.8817 12.9106 44.9256 12.9325C44.9695 12.9545 45.0025 12.982 45.0244 13.0149C45.0464 13.0478 45.0629 13.0863 45.0738 13.1302C45.0848 13.1741 45.0903 13.2236 45.0903 13.2785C45.0903 13.3334 45.0848 13.3883 45.0738 13.4432C45.0629 13.4871 45.0464 13.5256 45.0244 13.5585C45.0025 13.5914 44.9695 13.6189 44.9256 13.6409C44.8817 13.6518 44.8267 13.6573 44.7609 13.6573Z" fill="#0A2429"/>
<path d="M25.7511 13.6573V12.8996H34.5311L33.938 13.3938V9.62151C33.938 8.77591 33.8337 8.10602 33.6251 7.61184C33.4164 7.10667 33.076 6.74427 32.6037 6.52463C32.1425 6.29401 31.522 6.17871 30.7423 6.17871C30.2811 6.17871 29.8144 6.21165 29.3421 6.27754C28.8699 6.34343 28.5075 6.43678 28.2549 6.55758L28.7327 6.04692C28.6777 6.29951 28.6119 6.62896 28.535 7.03529C28.4691 7.44162 28.4142 7.89187 28.3703 8.38605C28.3263 8.88024 28.3044 9.37991 28.3044 9.88508C28.3044 10.4342 28.3263 10.9558 28.3703 11.45C28.4252 11.9332 28.4801 12.345 28.535 12.6854C28.5899 13.0149 28.6338 13.2345 28.6668 13.3444L27.909 13.5914C27.8761 13.4597 27.8267 13.2181 27.7608 12.8666C27.6949 12.5042 27.6345 12.065 27.5796 11.5488C27.5356 11.0217 27.5137 10.4671 27.5137 9.88508C27.5137 9.33598 27.5356 8.80336 27.5796 8.28722C27.6345 7.77107 27.6949 7.30434 27.7608 6.88703C27.8376 6.45874 27.9035 6.11831 27.9584 5.86572C28.1891 5.76689 28.5569 5.66805 29.0621 5.56921C29.5673 5.47038 30.1273 5.42096 30.7423 5.42096C31.6319 5.42096 32.3731 5.55823 32.9661 5.83278C33.5592 6.10732 34.0039 6.55209 34.3004 7.16707C34.597 7.77107 34.7452 8.58922 34.7452 9.62151V13.6573H25.7511ZM25.7511 13.6573C25.6742 13.6573 25.6138 13.6518 25.5699 13.6409C25.526 13.6189 25.493 13.5914 25.471 13.5585C25.4491 13.5256 25.4381 13.4871 25.4381 13.4432C25.4271 13.3883 25.4216 13.3334 25.4216 13.2785C25.4216 13.2016 25.4326 13.1412 25.4546 13.0973C25.4656 13.0424 25.493 12.9984 25.5369 12.9655C25.5809 12.9216 25.6522 12.8996 25.7511 12.8996V13.6573Z" fill="#0A2429"/>
<path d="M20.5601 13.6573C19.6047 13.6573 18.858 13.5145 18.3198 13.229C17.7927 12.9325 17.4193 12.4822 17.1997 11.8782C16.991 11.2632 16.8867 10.4835 16.8867 9.53909C16.8867 8.59465 16.991 7.82044 17.1997 7.21643C17.4193 6.60145 17.7927 6.1512 18.3198 5.86567C18.858 5.56916 19.6047 5.42091 20.5601 5.42091H23.6735V13.229H22.8663V5.83272L23.2452 6.17865H20.5601C19.8134 6.17865 19.2313 6.27749 18.814 6.47516C18.3967 6.66185 18.1057 7.00229 17.941 7.49647C17.7762 7.97967 17.6939 8.66055 17.6939 9.53909C17.6939 10.4176 17.7762 11.104 17.941 11.5982C18.1057 12.0814 18.3967 12.4218 18.814 12.6195C19.2313 12.8062 19.8134 12.8995 20.5601 12.8995H25.3537V13.6573H20.5601ZM25.3537 13.6573V12.8995C25.4306 12.8995 25.491 12.9105 25.5349 12.9325C25.5788 12.9544 25.6118 12.9819 25.6337 13.0148C25.6557 13.0478 25.6667 13.0862 25.6667 13.1302C25.6777 13.1741 25.6832 13.2235 25.6832 13.2784C25.6832 13.3333 25.6777 13.3882 25.6667 13.4431C25.6667 13.4871 25.6557 13.5255 25.6337 13.5584C25.6118 13.5914 25.5788 13.6188 25.5349 13.6408C25.491 13.6518 25.4306 13.6573 25.3537 13.6573ZM18.9623 3.54301V2.45581H19.7694V3.54301H18.9623ZM21.2191 3.54301V2.45581H22.0262V3.54301H21.2191Z" fill="#0A2429"/>
<path fill-rule="evenodd" clip-rule="evenodd" d="M6.92252 1.61131C4.27407 1.61131 2.0886 3.82612 2.0886 6.60636C2.0886 7.95978 2.68151 9.24052 3.69023 10.5877C4.54314 11.7269 5.63473 12.8406 6.81171 14.0415C6.84857 14.0791 6.88551 14.1168 6.92252 14.1545C6.95954 14.1168 6.99648 14.0791 7.03334 14.0415C8.21031 12.8406 9.3019 11.7269 10.1548 10.5877C11.1635 9.24052 11.7564 7.95978 11.7564 6.60636C11.7564 3.82612 9.57099 1.61131 6.92252 1.61131ZM0.477295 6.60636C0.477295 2.97931 3.34168 0 6.92252 0C10.5034 0 13.3678 2.97931 13.3678 6.60636C13.3678 8.45654 12.5508 10.0762 11.4446 11.5535C10.5214 12.7865 9.33965 13.9915 8.16406 15.1901C7.94195 15.4166 7.72006 15.6429 7.50017 15.869C7.34848 16.025 7.14013 16.1131 6.92252 16.1131C6.70492 16.1131 6.49656 16.025 6.34487 15.869C6.12499 15.6429 5.9031 15.4166 5.68099 15.1901C4.5054 13.9915 3.32363 12.7865 2.4004 11.5535C1.29428 10.0762 0.477295 8.45654 0.477295 6.60636ZM9.90917 5.06989C10.2238 5.38452 10.2238 5.89463 9.90917 6.20926L6.68655 9.43188C6.37193 9.7465 5.86181 9.7465 5.54719 9.43188L3.93588 7.82057C3.62125 7.50594 3.62125 6.99583 3.93588 6.6812C4.25051 6.36657 4.76062 6.36657 5.07525 6.6812L6.11687 7.72283L8.7698 5.06989C9.08443 4.75527 9.59454 4.75527 9.90917 5.06989Z" fill="#30B0C7"/>
</svg>
