<svg width="14" height="17" viewBox="0 0 14 17" fill="none" xmlns="http://www.w3.org/2000/svg">
<path fill-rule="evenodd" clip-rule="evenodd" d="M6.92252 1.61131C4.27407 1.61131 2.0886 3.82612 2.0886 6.60636C2.0886 7.95978 2.68151 9.24052 3.69023 10.5877C4.54314 11.7269 5.63473 12.8406 6.81171 14.0415C6.84857 14.0791 6.88551 14.1168 6.92252 14.1545C6.95954 14.1168 6.99648 14.0791 7.03334 14.0415C8.21031 12.8406 9.3019 11.7269 10.1548 10.5877C11.1635 9.24052 11.7564 7.95978 11.7564 6.60636C11.7564 3.82612 9.57099 1.61131 6.92252 1.61131ZM0.477295 6.60636C0.477295 2.97931 3.34168 0 6.92252 0C10.5034 0 13.3678 2.97931 13.3678 6.60636C13.3678 8.45654 12.5508 10.0762 11.4446 11.5535C10.5214 12.7865 9.33965 13.9915 8.16406 15.1901C7.94195 15.4166 7.72006 15.6429 7.50017 15.869C7.34848 16.025 7.14013 16.1131 6.92252 16.1131C6.70492 16.1131 6.49656 16.025 6.34487 15.869C6.12499 15.6429 5.9031 15.4166 5.68099 15.1901C4.5054 13.9915 3.32363 12.7865 2.4004 11.5535C1.29428 10.0762 0.477295 8.45654 0.477295 6.60636ZM9.90917 5.06989C10.2238 5.38452 10.2238 5.89463 9.90917 6.20926L6.68655 9.43188C6.37193 9.7465 5.86181 9.7465 5.54719 9.43188L3.93588 7.82057C3.62125 7.50594 3.62125 6.99583 3.93588 6.6812C4.25051 6.36657 4.76062 6.36657 5.07525 6.6812L6.11687 7.72283L8.7698 5.06989C9.08443 4.75527 9.59454 4.75527 9.90917 5.06989Z" fill="#30B0C7"/>
</svg>
